<svg width="121" height="32" viewBox="0 0 121 32" fill="none" xmlns="http://www.w3.org/2000/svg">
<path fill-rule="evenodd" clip-rule="evenodd" d="M16 32C24.8366 32 32 24.8366 32 16C32 7.16344 24.8366 0 16 0C7.16344 0 0 7.16344 0 16C0 24.8366 7.16344 32 16 32ZM8.5 22.3953C10.433 22.3953 12 20.8283 12 18.8953C12 16.9623 10.433 15.3953 8.5 15.3953C6.567 15.3953 5 16.9623 5 18.8953C5 20.8283 6.567 22.3953 8.5 22.3953ZM25 21.3953C25 22.4998 24.1046 23.3953 23 23.3953C21.8954 23.3953 21 22.4998 21 21.3953C21 20.2907 21.8954 19.3953 23 19.3953C24.1046 19.3953 25 20.2907 25 21.3953ZM18.5 11.3953C19.8807 11.3953 21 10.276 21 8.89526C21 7.51455 19.8807 6.39526 18.5 6.39526C17.1193 6.39526 16 7.51455 16 8.89526C16 10.276 17.1193 11.3953 18.5 11.3953Z" fill="#D8D9EF"/>
<path d="M113.534 14.3115V25.1152H109.967V11.3789H113.306L113.534 14.3115ZM113.001 17.7773L112.049 17.8027C112.032 16.7702 112.129 15.8434 112.341 15.0225C112.561 14.2015 112.87 13.5033 113.268 12.9277C113.674 12.3438 114.156 11.8994 114.715 11.5947C115.282 11.2816 115.912 11.125 116.606 11.125C117.14 11.125 117.626 11.2181 118.066 11.4043C118.515 11.5905 118.9 11.8867 119.222 12.293C119.543 12.6992 119.793 13.2409 119.971 13.918C120.148 14.5866 120.237 15.4076 120.237 16.3809V25.1152H116.67V16.3555C116.67 15.763 116.611 15.306 116.492 14.9844C116.374 14.6543 116.196 14.4258 115.959 14.2988C115.722 14.1634 115.426 14.0957 115.07 14.0957C114.732 14.0957 114.431 14.193 114.169 14.3877C113.907 14.5739 113.687 14.832 113.509 15.1621C113.34 15.4922 113.208 15.8815 113.115 16.3301C113.031 16.7786 112.993 17.2611 113.001 17.7773Z" fill="#D8D9EF"/>
<path d="M100.737 14.3115V25.1152H97.1699V11.3789H100.509L100.737 14.3115ZM100.204 17.7773L99.252 17.8027C99.235 16.7702 99.3324 15.8434 99.5439 15.0225C99.764 14.2015 100.073 13.5033 100.471 12.9277C100.877 12.3438 101.359 11.8994 101.918 11.5947C102.485 11.2816 103.116 11.125 103.81 11.125C104.343 11.125 104.829 11.2181 105.27 11.4043C105.718 11.5905 106.103 11.8867 106.425 12.293C106.746 12.6992 106.996 13.2409 107.174 13.918C107.352 14.5866 107.44 15.4076 107.44 16.3809V25.1152H103.873V16.3555C103.873 15.763 103.814 15.306 103.695 14.9844C103.577 14.6543 103.399 14.4258 103.162 14.2988C102.925 14.1634 102.629 14.0957 102.273 14.0957C101.935 14.0957 101.634 14.193 101.372 14.3877C101.11 14.5739 100.89 14.832 100.712 15.1621C100.543 15.4922 100.411 15.8815 100.318 16.3301C100.234 16.7786 100.196 17.2611 100.204 17.7773Z" fill="#D8D9EF"/>
<path d="M87.9404 14.3115V25.1152H84.373V11.3789H87.7119L87.9404 14.3115ZM87.4072 17.7773L86.4551 17.8027C86.4382 16.7702 86.5355 15.8434 86.7471 15.0225C86.9671 14.2015 87.276 13.5033 87.6738 12.9277C88.0801 12.3438 88.5625 11.8994 89.1211 11.5947C89.6882 11.2816 90.3187 11.125 91.0127 11.125C91.5459 11.125 92.0326 11.2181 92.4727 11.4043C92.9212 11.5905 93.3063 11.8867 93.6279 12.293C93.9495 12.6992 94.1992 13.2409 94.377 13.918C94.5547 14.5866 94.6436 15.4076 94.6436 16.3809V25.1152H91.0762V16.3555C91.0762 15.763 91.0169 15.306 90.8984 14.9844C90.7799 14.6543 90.6022 14.4258 90.3652 14.2988C90.1283 14.1634 89.832 14.0957 89.4766 14.0957C89.138 14.0957 88.8376 14.193 88.5752 14.3877C88.3128 14.5739 88.0928 14.832 87.915 15.1621C87.7458 15.4922 87.6146 15.8815 87.5215 16.3301C87.4368 16.7786 87.3988 17.2611 87.4072 17.7773Z" fill="#D8D9EF"/>
<path d="M71.0938 18.7168V17.79C71.0938 16.7152 71.2207 15.763 71.4746 14.9336C71.737 14.1042 72.1094 13.4102 72.5918 12.8516C73.0742 12.2845 73.654 11.8571 74.3311 11.5693C75.0166 11.2731 75.7826 11.125 76.6289 11.125C77.4837 11.125 78.2497 11.2731 78.9268 11.5693C79.6123 11.8571 80.1963 12.2845 80.6787 12.8516C81.1696 13.4102 81.5462 14.1042 81.8086 14.9336C82.071 15.763 82.2021 16.7152 82.2021 17.79V18.7168C82.2021 19.7832 82.071 20.7311 81.8086 21.5605C81.5462 22.39 81.1696 23.0882 80.6787 23.6553C80.1963 24.2223 79.6165 24.6497 78.9395 24.9375C78.2624 25.2253 77.5007 25.3691 76.6543 25.3691C75.8079 25.3691 75.042 25.2253 74.3564 24.9375C73.6794 24.6497 73.0954 24.2223 72.6045 23.6553C72.1136 23.0882 71.737 22.39 71.4746 21.5605C71.2207 20.7311 71.0938 19.7832 71.0938 18.7168ZM74.6484 17.79V18.7168C74.6484 19.3516 74.6908 19.9017 74.7754 20.3672C74.8685 20.8327 74.9997 21.2178 75.1689 21.5225C75.3467 21.8271 75.5583 22.0514 75.8037 22.1953C76.0492 22.3392 76.3327 22.4111 76.6543 22.4111C76.9759 22.4111 77.2637 22.3392 77.5176 22.1953C77.7715 22.0514 77.9788 21.8271 78.1396 21.5225C78.3089 21.2178 78.4316 20.8327 78.5078 20.3672C78.5924 19.9017 78.6348 19.3516 78.6348 18.7168V17.79C78.6348 17.1722 78.5882 16.6305 78.4951 16.165C78.402 15.6911 78.2708 15.306 78.1016 15.0098C77.9323 14.7051 77.7207 14.4766 77.4668 14.3242C77.2214 14.1634 76.9421 14.083 76.6289 14.083C76.3158 14.083 76.0365 14.1634 75.791 14.3242C75.554 14.4766 75.3467 14.7051 75.1689 15.0098C74.9997 15.306 74.8685 15.6911 74.7754 16.165C74.6908 16.6305 74.6484 17.1722 74.6484 17.79Z" fill="#D8D9EF"/>
<path d="M58.1445 18.7168V17.79C58.1445 16.7152 58.2715 15.763 58.5254 14.9336C58.7878 14.1042 59.1602 13.4102 59.6426 12.8516C60.125 12.2845 60.7048 11.8571 61.3818 11.5693C62.0674 11.2731 62.8333 11.125 63.6797 11.125C64.5345 11.125 65.3005 11.2731 65.9775 11.5693C66.6631 11.8571 67.2471 12.2845 67.7295 12.8516C68.2204 13.4102 68.597 14.1042 68.8594 14.9336C69.1217 15.763 69.2529 16.7152 69.2529 17.79V18.7168C69.2529 19.7832 69.1217 20.7311 68.8594 21.5605C68.597 22.39 68.2204 23.0882 67.7295 23.6553C67.2471 24.2223 66.6673 24.6497 65.9902 24.9375C65.3132 25.2253 64.5514 25.3691 63.7051 25.3691C62.8587 25.3691 62.0928 25.2253 61.4072 24.9375C60.7301 24.6497 60.1462 24.2223 59.6553 23.6553C59.1644 23.0882 58.7878 22.39 58.5254 21.5605C58.2715 20.7311 58.1445 19.7832 58.1445 18.7168ZM61.6992 17.79V18.7168C61.6992 19.3516 61.7415 19.9017 61.8262 20.3672C61.9193 20.8327 62.0505 21.2178 62.2197 21.5225C62.3975 21.8271 62.609 22.0514 62.8545 22.1953C63.0999 22.3392 63.3835 22.4111 63.7051 22.4111C64.0267 22.4111 64.3145 22.3392 64.5684 22.1953C64.8223 22.0514 65.0296 21.8271 65.1904 21.5225C65.3597 21.2178 65.4824 20.8327 65.5586 20.3672C65.6432 19.9017 65.6855 19.3516 65.6855 18.7168V17.79C65.6855 17.1722 65.639 16.6305 65.5459 16.165C65.4528 15.6911 65.3216 15.306 65.1523 15.0098C64.9831 14.7051 64.7715 14.4766 64.5176 14.3242C64.2721 14.1634 63.9928 14.083 63.6797 14.083C63.3665 14.083 63.0872 14.1634 62.8418 14.3242C62.6048 14.4766 62.3975 14.7051 62.2197 15.0098C62.0505 15.306 61.9193 15.6911 61.8262 16.165C61.7415 16.6305 61.6992 17.1722 61.6992 17.79Z" fill="#D8D9EF"/>
<path d="M40.3203 6.63086H43.583L47.3535 19.2754L51.1113 6.63086H53.9932L48.7373 25.1152H45.957L40.3203 6.63086ZM39 6.63086H42.1104L42.5928 18.8184V25.1152H39V6.63086ZM52.5713 6.63086H55.6943V25.1152H52.1143V18.8184L52.5713 6.63086Z" fill="#D8D9EF"/>
</svg>
